<svg width="169" height="17" viewBox="0 0 169 17" fill="none" xmlns="http://www.w3.org/2000/svg">
<path d="M11.956 14.387H4.964L3.899 16.5H0.5L8.462 0.5L16.422 16.5H13.02L11.955 14.387H11.956ZM6.328 11.634H10.563L8.43 7.384L6.328 11.634ZM27.76 12.085L23.44 8.12V16.5H20.13V0.5L27.737 7.622L35.437 0.5V16.5H32.14V8.12L27.76 12.085ZM52.517 4.156H45.123V7.123H51.807V10.208H45.123V13.412H52.628V16.497H41.814V1.07H52.517V4.156ZM71.39 8.88C71.39 13.39 68.108 16.5 63.146 16.5H58.234V1.074H63.289C68.297 1.069 71.39 4.322 71.39 8.88ZM68.084 8.785C68.084 5.872 66.194 4.158 63.501 4.158H61.539V13.413H63.477C66.122 13.413 68.084 11.704 68.084 8.785ZM75.264 1.07H84.761V4.154H81.665V13.41H84.761V16.495H75.264V13.41H78.36V4.154H75.264V1.07ZM99.548 14.387H92.555L91.493 16.5H88.082L96.043 0.5L104.005 16.5H100.594L99.548 14.387ZM93.92 11.634H98.148L96.021 7.384L93.92 11.634ZM104.319 1.07H117.547V4.154H112.588V16.495H109.28V4.155H104.319V1.068V1.07ZM132.524 4.156H125.13V7.123H131.816V10.208H125.13V13.412H132.635V16.497H121.816V1.07H132.517L132.524 4.156ZM141.548 9.354V16.5H138.241V1.074H141.548V7.96L146.791 1.075H150.784L145.048 8.548L151.309 16.5H147.364L141.548 9.354ZM164.036 14.387H157.044L155.981 16.5H152.578L160.54 0.5L168.5 16.5H165.099L164.036 14.387ZM158.408 11.634H162.638L160.511 7.384L158.408 11.634Z" fill="white"/>
</svg>
